<?xml version="1.0" encoding="utf-8"?>
<!-- Generator: Adobe Adobe Illustrator 24.2.0, SVG Export Plug-In . SVG Version: 6.00 Build 0)  -->
<svg version="1.1" id="Layer_1" xmlns="http://www.w3.org/2000/svg" xmlns:xlink="http://www.w3.org/1999/xlink" x="0px" y="0px"
	 width="50px" height="50px" viewBox="0 0 50 50" style="enable-background:new 0 0 50 50;" xml:space="preserve">
<style type="text/css">
	.st0{fill:#808080;}
	.st1{fill:#FFFFFF;}
	.st2{fill:#808080;stroke:#FFFFFF;stroke-width:2;stroke-miterlimit:10;}
	.st3{fill:url(#SVGID_1_);}
	.st4{fill:url(#SVGID_2_);}
</style>
<g>
	<g>
		<path class="st0" d="M37.87,11.56c0-6.36-5.85-7.93-8.82-7.93H14.04c-6.07,0-10.53,2.3-10.53,8.81c0,5.66-0.01,13.08-0.01,16.01
			c0,5.73,2.82,9.11,6.88,9.31c4.06,0.21,15.06,0.27,17.93,0.27c6.13,0,9.59-2.63,9.59-7.91C37.9,23.64,37.87,11.56,37.87,11.56"/>
		<path class="st1" d="M28.68,20.29c0,0-2.2,2.08-5.67,3.34c-5.62,2.03-12.69,2.05-14.79,7.53c0.17-2.33,4.39-6.67,9.49-7.98
			C22.81,21.86,24.98,22.52,28.68,20.29"/>
		<path class="st1" d="M7.54,31.94c0.22-3.17,2.37-8.74,8.45-11.39c5.21-2.27,9.78-1.72,12.98-4.02c2.1-1.51,5-5.15,4.83-9.36
			c0,0,0.74,5.73-2.07,9.49c-3.25,4.35-6.69,4.16-12.18,5.12C13.54,22.83,9.1,26.6,7.54,31.94"/>
		<path class="st1" d="M12.71,21.13c3.82-2.84,6.36-3.2,9.77-4.06c3.7-0.93,6.7-2.95,7.92-3.98c1.22-1.03,2.94-3.99,3.25-5.72
			c-0.28,3.02-1.57,5.24-2.65,6.43c-1.08,1.19-2.16,3.09-7.94,4.3c-4.43,0.93-7.22,2.09-9.1,3.5c-2.45,1.84-6.05,8.52-6.22,9.47
			C7.56,32.02,7.81,24.78,12.71,21.13"/>
	</g>
	<g>
		<g>
			<path class="st2" d="M46.48,33.54c0-3.08-2.93-3.85-4.41-3.85h-7.51c-3.04,0-5.27,1.11-5.27,4.27c0,2.74,0,6.34,0,7.76
				c0,2.78,1.41,4.42,3.44,4.52c2.03,0.1,7.53,0.13,8.96,0.13c3.07,0,4.8-1.27,4.8-3.84C46.5,39.39,46.48,33.54,46.48,33.54"/>
		</g>
		<g>
			<path class="st0" d="M46.48,33.54c0-3.08-2.93-3.85-4.41-3.85h-7.51c-3.04,0-5.27,1.11-5.27,4.27c0,2.74,0,6.34,0,7.76
				c0,2.78,1.41,4.42,3.44,4.52c2.03,0.1,7.53,0.13,8.96,0.13c3.07,0,4.8-1.27,4.8-3.84C46.5,39.39,46.48,33.54,46.48,33.54"/>
		</g>
		<g>
			<linearGradient id="SVGID_1_" gradientUnits="userSpaceOnUse" x1="38.6464" y1="44.645" x2="33.9114" y2="35.1127">
				<stop  offset="0" style="stop-color:#FFFFFF"/>
				<stop  offset="0.3231" style="stop-color:#FCFCFC;stop-opacity:0.6769"/>
				<stop  offset="0.5601" style="stop-color:#F3F3F3;stop-opacity:0.4399"/>
				<stop  offset="0.7695" style="stop-color:#E3E3E3;stop-opacity:0.2305"/>
				<stop  offset="0.962" style="stop-color:#CCCCCC;stop-opacity:0.038"/>
				<stop  offset="1" style="stop-color:#C7C7C7;stop-opacity:0"/>
			</linearGradient>
			<path class="st3" d="M39.18,44.45c0.11-0.55-0.05-1.35-1.41-2.63c-1.41-1.32-3.17-1.62-3.78-3.89c-0.49-1.8,0.48-3.24,0.48-3.24
				s-0.29,0.72,0.08,2.27c0.16,0.68,0.93,1.94,1.93,2.81C39.28,42.2,39.69,43.47,39.18,44.45z"/>
			<path class="st1" d="M36.44,31.51c-1.08,1.08-2.19,3.17-1.26,5.2c0.82,1.8,2.25,3.06,3.69,5.18c0.74,1.09,0.77,2.02,0.36,2.66
				c0.83-0.72,1.38-1.78,1.5-2.73c0.12-0.95,0.07-2.26-1.23-3.84s-2.11-2.41-2.7-3.11c-0.58-0.7-1.15-1.43-0.77-2.59
				C36.15,31.93,36.44,31.51,36.44,31.51z"/>
			<linearGradient id="SVGID_2_" gradientUnits="userSpaceOnUse" x1="37.0214" y1="31.8109" x2="41.9648" y2="41.9677">
				<stop  offset="0" style="stop-color:#FFFFFF"/>
				<stop  offset="0.9205" style="stop-color:#FFFFFF;stop-opacity:0.0795"/>
				<stop  offset="1" style="stop-color:#FFFFFF;stop-opacity:0"/>
			</linearGradient>
			<path class="st4" d="M36.31,32.01c-0.11,0.55-0.06,1.48,1.41,2.63c1.48,1.15,3.66,1.89,4.12,3.7c0.46,1.81-0.71,4.16-0.71,4.16
				s0.32-1.63-0.09-3.16c-0.32-1.19-1.19-2.21-2.34-3.09C35.76,33.98,35.8,32.99,36.31,32.01z"/>
		</g>
	</g>
</g>
</svg>
