<svg width="171" height="28" viewBox="0 0 171 28" fill="none" xmlns="http://www.w3.org/2000/svg">
<path d="M17.8379 1.50083C17.8891 1.50083 17.9413 1.51132 17.9941 1.51744C17.9941 1.54747 17.9989 1.56699 17.9922 1.57701C17.7977 1.87783 17.7252 2.21974 17.6641 2.56333C17.5701 3.08773 17.5342 3.61751 17.5342 4.15025L17.5332 9.1356C17.5338 9.14736 17.5362 9.15938 17.5361 9.17173C17.5328 11.4134 17.5342 21.9895 17.5342 24.2313C17.5342 24.7597 17.5853 25.2825 17.7188 25.7948C17.776 26.0132 17.8445 26.2274 17.9756 26.4159C17.99 26.4365 17.9936 26.4639 18.0098 26.5067C17.9414 26.5156 17.8843 26.5282 17.8281 26.5282C16.5601 26.5293 15.2915 26.5293 14.0234 26.5282C13.9669 26.5281 13.9102 26.5157 13.8271 26.5057C13.8605 26.4174 13.882 26.3566 13.9053 26.2977C14.0677 25.8905 14.165 25.4664 14.1895 25.0292C14.21 24.6544 14.2311 24.2774 14.2139 23.9032C14.1927 23.4538 14.1347 23.0056 14.083 22.5585C14.0741 22.4834 14.0238 22.4088 13.9805 22.3426C13.5488 21.6796 13.068 21.0527 12.5635 20.4442C11.8052 19.5283 10.9936 18.6621 10.1289 17.8456C9.71065 17.4512 9.2723 17.0787 8.8457 16.6932C8.10761 16.0263 7.4128 15.3154 6.73145 14.5907C6.02118 13.8348 5.33354 13.0577 4.68945 12.244C4.26899 11.7129 3.86383 11.1702 3.52344 10.5829C3.42168 10.4077 3.33315 10.2256 3.21973 10.0116V10.201C3.21973 13.3404 3.21723 16.4806 3.22168 19.62C3.22225 20.2545 3.27944 20.8857 3.44629 21.5008C3.49913 21.6966 3.58743 21.8819 3.65918 22.0721C3.66953 22.1013 3.67984 22.1302 3.68945 22.159C3.56374 22.1952 0.198871 22.2043 0.00585938 22.1698C0.0108655 22.1409 0.0106442 22.1075 0.0234375 22.0819C0.208473 21.7183 0.288066 21.3241 0.356445 20.9266C0.45878 20.3321 0.48186 19.7305 0.482422 19.1288C0.484647 15.4087 0.4877 11.6881 0.480469 7.96861C0.478781 7.28574 0.405477 6.60666 0.195312 5.95103C0.143051 5.78869 0.0689446 5.63355 0 5.46177C0.0317052 5.4512 0.0637262 5.43497 0.0976562 5.43052C0.139758 5.42499 0.182927 5.42757 0.225586 5.42759C1.56907 5.42722 2.91335 5.42783 4.25684 5.42857C4.32893 5.4286 4.40106 5.43766 4.48145 5.44322C4.47813 5.49356 4.48181 5.52671 4.47363 5.55552C4.38633 5.85804 4.37193 6.16934 4.36914 6.4813C4.36469 7.07855 4.39741 7.67154 4.53027 8.25767C4.706 9.034 5.06295 9.7162 5.57617 10.3202C6.05447 10.8841 6.60417 11.3746 7.1709 11.8446C8.00636 12.5376 8.84524 13.227 9.69238 13.9061C10.5394 14.5863 11.4361 15.1976 12.3516 15.7821C12.9629 16.1726 13.5772 16.558 14.1885 16.9491C14.3508 17.0525 14.5078 17.1649 14.6846 17.285C14.6935 17.2322 14.7045 17.1925 14.7051 17.1542C14.7174 16.5876 14.7318 8.87388 14.7441 6.83677C14.7442 5.97386 14.745 5.11095 14.7461 4.2479C14.7466 3.55762 14.6893 2.87395 14.5107 2.20591C14.4596 2.01531 14.3802 1.83154 14.3135 1.64537L14.2725 1.52427C14.3408 1.51483 14.397 1.50087 14.4531 1.50083C15.5811 1.49972 16.7095 1.49972 17.8379 1.50083Z" fill="white"/>
<path d="M118.172 1.50083C118.121 1.50083 118.068 1.51132 118.016 1.51744C118.016 1.54747 118.011 1.56699 118.018 1.57701C118.212 1.87783 118.285 2.21974 118.346 2.56333C118.44 3.08773 118.476 3.61751 118.476 4.15025L118.477 9.1356C118.476 9.14736 118.474 9.15938 118.474 9.17173C118.477 11.4134 118.476 21.9895 118.476 24.2313C118.476 24.7597 118.425 25.2825 118.291 25.7948C118.234 26.0132 118.165 26.2274 118.034 26.4159C118.02 26.4365 118.016 26.4639 118 26.5067C118.068 26.5156 118.125 26.5282 118.182 26.5282C119.45 26.5293 120.718 26.5293 121.986 26.5282C122.043 26.5281 122.1 26.5157 122.183 26.5057C122.149 26.4174 122.128 26.3566 122.104 26.2977C121.942 25.8905 121.845 25.4664 121.82 25.0292C121.8 24.6544 121.779 24.2774 121.796 23.9032C121.817 23.4538 121.875 23.0056 121.927 22.5585C121.936 22.4834 121.986 22.4088 122.029 22.3426C122.461 21.6796 122.942 21.0527 123.446 20.4442C124.205 19.5283 125.016 18.6621 125.881 17.8456C126.299 17.4512 126.737 17.0787 127.164 16.6932C127.902 16.0263 128.597 15.3154 129.278 14.5907C129.989 13.8348 130.676 13.0577 131.32 12.244C131.741 11.7129 132.146 11.1702 132.486 10.5829C132.588 10.4077 132.677 10.2256 132.79 10.0116V10.201C132.79 13.3404 132.793 16.4806 132.788 19.62C132.788 20.2545 132.73 20.8857 132.563 21.5008C132.511 21.6966 132.422 21.8819 132.351 22.0721C132.34 22.1013 132.33 22.1302 132.32 22.159C132.446 22.1952 135.811 22.2043 136.004 22.1698C135.999 22.1409 135.999 22.1075 135.986 22.0819C135.801 21.7183 135.722 21.3241 135.653 20.9266C135.551 20.3321 135.528 19.7305 135.527 19.1288C135.525 15.4087 135.522 11.6881 135.529 7.96861C135.531 7.28574 135.604 6.60666 135.814 5.95103C135.867 5.78869 135.941 5.63355 136.01 5.46177C135.978 5.4512 135.946 5.43497 135.912 5.43052C135.87 5.42499 135.827 5.42757 135.784 5.42759C134.441 5.42722 133.096 5.42783 131.753 5.42857C131.681 5.4286 131.609 5.43766 131.528 5.44322C131.532 5.49356 131.528 5.52671 131.536 5.55552C131.623 5.85804 131.638 6.16934 131.641 6.4813C131.645 7.07855 131.612 7.67154 131.479 8.25767C131.304 9.034 130.947 9.7162 130.434 10.3202C129.955 10.8841 129.406 11.3746 128.839 11.8446C128.003 12.5376 127.165 13.227 126.317 13.9061C125.47 14.5863 124.574 15.1976 123.658 15.7821C123.047 16.1726 122.433 16.558 121.821 16.9491C121.659 17.0525 121.502 17.1649 121.325 17.285C121.316 17.2322 121.305 17.1925 121.305 17.1542C121.292 16.5876 121.278 8.87388 121.266 6.83677C121.266 5.97386 121.265 5.11095 121.264 4.2479C121.263 3.55762 121.32 2.87395 121.499 2.20591C121.55 2.01531 121.63 1.83154 121.696 1.64537L121.737 1.52427C121.669 1.51483 121.613 1.50087 121.557 1.50083C120.429 1.49972 119.3 1.49972 118.172 1.50083Z" fill="white"/>
<path d="M23.408 22C22.752 22 22.248 21.856 21.896 21.568C21.56 21.28 21.384 20.992 21.368 20.704L21.344 20.296V10H23.024V20.296C23.024 20.76 23.112 21.12 23.288 21.376C23.48 21.616 23.664 21.744 23.84 21.76L24.128 21.808H24.872V22H23.408ZM21.488 7.312C21.296 7.12 21.2 6.88 21.2 6.592C21.2 6.304 21.296 6.064 21.488 5.872C21.68 5.664 21.92 5.56 22.208 5.56C22.496 5.56 22.736 5.664 22.928 5.872C23.136 6.064 23.24 6.304 23.24 6.592C23.24 6.88 23.136 7.12 22.928 7.312C22.736 7.504 22.496 7.6 22.208 7.6C21.92 7.6 21.68 7.504 21.488 7.312ZM31.2166 10.096C30.0806 10.096 29.1286 10.64 28.3606 11.728C27.6086 12.816 27.2326 14.32 27.2326 16.24C27.2326 18.16 27.5766 19.584 28.2646 20.512C28.9686 21.44 29.8886 21.904 31.0246 21.904C32.4486 21.904 33.7126 21.664 34.8166 21.184L34.8886 21.352C33.7526 21.848 32.4246 22.096 30.9046 22.096C29.3846 22.096 28.1206 21.616 27.1126 20.656C26.1046 19.696 25.6006 18.216 25.6006 16.216C25.6006 14.216 26.1286 12.664 27.1846 11.56C28.2406 10.456 29.5846 9.904 31.2166 9.904C32.1286 9.904 32.9686 10.112 33.7366 10.528C34.5206 10.944 35.0966 11.576 35.4646 12.424H33.9286C33.6886 11.64 33.3206 11.056 32.8246 10.672C32.3446 10.288 31.8086 10.096 31.2166 10.096ZM42.3746 22.096C40.6946 22.096 39.3266 21.616 38.2706 20.656C37.2146 19.696 36.6866 18.216 36.6866 16.216C36.6866 14.216 37.2306 12.664 38.3186 11.56C39.4226 10.456 40.8146 9.904 42.4946 9.904C44.1906 9.904 45.5666 10.384 46.6226 11.344C47.6786 12.304 48.2066 13.784 48.2066 15.784C48.2066 17.784 47.6546 19.336 46.5506 20.44C45.4626 21.544 44.0706 22.096 42.3746 22.096ZM42.5426 10.096C41.3266 10.096 40.3186 10.64 39.5186 11.728C38.7186 12.8 38.3186 14.304 38.3186 16.24C38.3186 18.16 38.6866 19.584 39.4226 20.512C40.1586 21.44 41.1346 21.904 42.3506 21.904C43.5666 21.904 44.5746 21.368 45.3746 20.296C46.1746 19.208 46.5746 17.704 46.5746 15.784C46.5746 13.848 46.2066 12.416 45.4706 11.488C44.7346 10.56 43.7586 10.096 42.5426 10.096ZM50.1163 16.432C50.1163 14.352 50.6203 12.744 51.6283 11.608C52.6363 10.472 54.1483 9.904 56.1643 9.904C57.1083 9.904 58.0603 10.144 59.0203 10.624V4.024H60.7003V20.296C60.7003 20.76 60.7883 21.12 60.9643 21.376C61.1563 21.616 61.3483 21.744 61.5403 21.76L61.8043 21.808H62.5483V22H61.0843C60.4283 22 59.9243 21.856 59.5723 21.568C59.2363 21.28 59.0603 20.992 59.0443 20.704L59.0203 20.296V19.912C58.7163 20.472 58.2123 20.968 57.5083 21.4C56.8043 21.832 55.9723 22.048 55.0123 22.048C51.7483 21.968 50.1163 20.096 50.1163 16.432ZM55.0363 21.856C56.1083 21.856 57.0283 21.568 57.7963 20.992C58.5643 20.416 58.9723 19.848 59.0203 19.288V10.84C57.8843 10.344 56.9083 10.096 56.0923 10.096C54.6683 10.096 53.5963 10.656 52.8763 11.776C52.1563 12.88 51.7963 14.432 51.7963 16.432C51.7963 20.048 52.8763 21.856 55.0363 21.856ZM64.8967 16.144C64.8967 18.128 65.2407 19.584 65.9287 20.512C66.6327 21.44 67.5527 21.904 68.6887 21.904C70.2887 21.904 71.7127 21.664 72.9607 21.184L73.0327 21.352C71.7527 21.848 70.3047 22.096 68.6887 22.096C67.0887 22.096 65.7847 21.616 64.7767 20.656C63.7687 19.696 63.2647 18.216 63.2647 16.216C63.2647 14.216 63.7927 12.664 64.8487 11.56C65.9047 10.456 67.2487 9.904 68.8807 9.904C70.1927 9.904 71.2967 10.296 72.1927 11.08C73.0887 11.864 73.5367 13.024 73.5367 14.56C73.5367 14.64 73.5367 14.72 73.5367 14.8H64.9687C64.9207 15.232 64.8967 15.68 64.8967 16.144ZM71.9047 14.608C71.8887 13.072 71.5927 11.936 71.0167 11.2C70.4407 10.464 69.6967 10.096 68.7847 10.096C67.8727 10.096 67.0567 10.496 66.3367 11.296C65.6327 12.096 65.1847 13.2 64.9927 14.608H71.9047ZM88.9867 12.76C88.9867 11.784 88.8587 11.096 88.6027 10.696C88.3467 10.296 87.8587 10.096 87.1387 10.096C86.1787 10.096 85.3227 10.496 84.5707 11.296C83.8347 12.096 83.4667 12.816 83.4667 13.456V22H81.7867V12.76C81.7867 11.784 81.6587 11.096 81.4027 10.696C81.1467 10.296 80.6027 10.096 79.7707 10.096C78.9387 10.096 78.1467 10.48 77.3947 11.248C76.6587 12.016 76.2587 12.728 76.1947 13.384V22H74.5147V10H76.1947V12.712C76.4507 12.024 76.9227 11.384 77.6107 10.792C78.2987 10.2 79.0667 9.904 79.9147 9.904C80.7627 9.904 81.4347 9.984 81.9307 10.144C82.4427 10.288 82.8027 10.52 83.0107 10.84C83.2187 11.16 83.3467 11.44 83.3947 11.68C83.4427 11.92 83.4667 12.256 83.4667 12.688C83.7227 12 84.1867 11.368 84.8587 10.792C85.5307 10.2 86.2507 9.904 87.0187 9.904C87.7867 9.904 88.4027 9.968 88.8667 10.096C89.3307 10.224 89.6747 10.368 89.8987 10.528C90.1387 10.688 90.3147 10.92 90.4267 11.224C90.5547 11.528 90.6267 11.776 90.6427 11.968C90.6587 12.16 90.6667 12.432 90.6667 12.784V20.296C90.6667 20.76 90.7547 21.12 90.9307 21.376C91.1227 21.616 91.3147 21.744 91.5067 21.76L91.7707 21.808H92.5147V22H91.0507C90.3947 22 89.8907 21.856 89.5387 21.568C89.2027 21.28 89.0267 20.992 89.0107 20.704L88.9867 20.296V12.76ZM98.6714 22.096C96.9914 22.096 95.6234 21.616 94.5674 20.656C93.5114 19.696 92.9834 18.216 92.9834 16.216C92.9834 14.216 93.5274 12.664 94.6154 11.56C95.7194 10.456 97.1114 9.904 98.7914 9.904C100.487 9.904 101.863 10.384 102.919 11.344C103.975 12.304 104.503 13.784 104.503 15.784C104.503 17.784 103.951 19.336 102.847 20.44C101.759 21.544 100.367 22.096 98.6714 22.096ZM98.8394 10.096C97.6234 10.096 96.6154 10.64 95.8154 11.728C95.0154 12.8 94.6154 14.304 94.6154 16.24C94.6154 18.16 94.9834 19.584 95.7194 20.512C96.4554 21.44 97.4314 21.904 98.6474 21.904C99.8634 21.904 100.871 21.368 101.671 20.296C102.471 19.208 102.871 17.704 102.871 15.784C102.871 13.848 102.503 12.416 101.767 11.488C101.031 10.56 100.055 10.096 98.8394 10.096ZM112.952 10.84C112.696 10.632 112.28 10.456 111.704 10.312C111.144 10.168 110.72 10.096 110.432 10.096C110.144 10.096 109.976 10.096 109.928 10.096C109.064 10.112 108.44 10.336 108.056 10.768C107.672 11.184 107.48 11.656 107.48 12.184C107.48 12.712 107.648 13.16 107.984 13.528C108.32 13.88 108.736 14.16 109.232 14.368C109.744 14.56 110.288 14.784 110.864 15.04C111.456 15.296 112 15.56 112.496 15.832C113.008 16.088 113.432 16.472 113.768 16.984C114.104 17.48 114.272 18.104 114.272 18.856C114.272 19.608 114.008 20.248 113.48 20.776C112.952 21.304 112.36 21.656 111.704 21.832C111.064 22.008 110.368 22.096 109.616 22.096C107.984 22.096 106.76 21.736 105.944 21.016L106.088 20.872C106.408 21.176 106.88 21.424 107.504 21.616C108.144 21.808 108.76 21.904 109.352 21.904C110.296 21.904 111.072 21.648 111.68 21.136C112.304 20.608 112.616 19.96 112.616 19.192C112.616 18.408 112.384 17.784 111.92 17.32C111.456 16.84 110.888 16.472 110.216 16.216C109.56 15.944 108.896 15.68 108.224 15.424C107.552 15.152 106.984 14.784 106.52 14.32C106.056 13.84 105.824 13.288 105.824 12.664C105.824 12.04 105.968 11.536 106.256 11.152C106.544 10.752 106.928 10.472 107.408 10.312C108.224 10.04 109.04 9.904 109.856 9.904C111.232 9.904 112.304 10.16 113.072 10.672L112.952 10.84Z" fill="white"/>
<path d="M140.592 16.144C140.592 18.128 140.936 19.584 141.624 20.512C142.328 21.44 143.248 21.904 144.384 21.904C145.984 21.904 147.408 21.664 148.656 21.184L148.728 21.352C147.448 21.848 146 22.096 144.384 22.096C142.784 22.096 141.48 21.616 140.472 20.656C139.464 19.696 138.96 18.216 138.96 16.216C138.96 14.216 139.488 12.664 140.544 11.56C141.6 10.456 142.944 9.904 144.576 9.904C145.888 9.904 146.992 10.296 147.888 11.08C148.784 11.864 149.232 13.024 149.232 14.56C149.232 14.64 149.232 14.72 149.232 14.8H140.664C140.616 15.232 140.592 15.68 140.592 16.144ZM147.6 14.608C147.584 13.072 147.288 11.936 146.712 11.2C146.136 10.464 145.392 10.096 144.48 10.096C143.568 10.096 142.752 10.496 142.032 11.296C141.328 12.096 140.88 13.2 140.688 14.608H147.6ZM150.817 10.192V10H151.321V7.6H153.001V10H156.673V10.192H153.001V18.928C153.001 19.968 153.113 20.72 153.337 21.184C153.577 21.648 154.065 21.88 154.801 21.88C155.553 21.88 156.313 21.728 157.081 21.424L157.153 21.616C156.353 21.92 155.433 22.072 154.393 22.072C153.369 22.072 152.601 21.864 152.089 21.448C151.577 21.016 151.321 20.168 151.321 18.904V10.192H150.817ZM163.445 22.096C161.765 22.096 160.397 21.616 159.341 20.656C158.285 19.696 157.757 18.216 157.757 16.216C157.757 14.216 158.301 12.664 159.389 11.56C160.493 10.456 161.885 9.904 163.565 9.904C165.261 9.904 166.637 10.384 167.693 11.344C168.749 12.304 169.277 13.784 169.277 15.784C169.277 17.784 168.725 19.336 167.621 20.44C166.533 21.544 165.141 22.096 163.445 22.096ZM163.613 10.096C162.397 10.096 161.389 10.64 160.589 11.728C159.789 12.8 159.389 14.304 159.389 16.24C159.389 18.16 159.757 19.584 160.493 20.512C161.229 21.44 162.205 21.904 163.421 21.904C164.637 21.904 165.645 21.368 166.445 20.296C167.245 19.208 167.645 17.704 167.645 15.784C167.645 13.848 167.277 12.416 166.541 11.488C165.805 10.56 164.829 10.096 163.613 10.096Z" fill="white"/>
</svg>
