<svg width="195" height="30" viewBox="0 0 195 30" fill="none" xmlns="http://www.w3.org/2000/svg">
<path d="M0.594287 29V28.6L3.39429 28.08V4.32C3.39429 3.70666 3.14095 3.10666 2.63429 2.52C2.12762 1.90666 1.44762 1.42666 0.594287 1.08V0.68H6.83429L24.8343 23.56H25.3543V10.8C25.3543 9.86667 25.2743 8.97333 25.1143 8.12C24.9543 7.26667 24.6876 6.48 24.3143 5.76C23.9676 5.01333 23.5276 4.33333 22.9943 3.72C22.461 3.10667 21.821 2.58667 21.0743 2.16C20.3543 1.70667 19.5276 1.34667 18.5943 1.08V0.68H28.9943V1.08L25.9543 1.6V29H23.4743L4.51429 5H3.99429V17.08C3.99429 18.2 4.07429 19.2533 4.23429 20.24C4.42095 21.2 4.70095 22.1067 5.07429 22.96C5.44762 23.7867 5.92762 24.56 6.51429 25.28C7.10095 25.9733 7.80762 26.6 8.63429 27.16C9.46095 27.72 10.4343 28.2 11.5543 28.6V29H0.594287ZM36.1977 5.16C35.5044 5.16 34.8911 5.05333 34.3577 4.84C33.8244 4.62666 33.4111 4.33333 33.1177 3.96C32.8244 3.58666 32.6777 3.16 32.6777 2.68C32.6777 2.17333 32.8244 1.74666 33.1177 1.4C33.4111 1.02666 33.8244 0.733332 34.3577 0.52C34.8911 0.306666 35.5044 0.199999 36.1977 0.199999C36.8911 0.199999 37.5044 0.306666 38.0377 0.52C38.5711 0.733332 38.9844 1.02666 39.2777 1.4C39.5977 1.74666 39.7577 2.17333 39.7577 2.68C39.7577 3.16 39.5977 3.58666 39.2777 3.96C38.9844 4.33333 38.5711 4.62666 38.0377 4.84C37.5044 5.05333 36.8911 5.16 36.1977 5.16ZM31.9977 29V28.6L34.2377 28.2V10.2H31.7577V9.76L38.6377 8.4V28.2L40.8377 28.6V29H31.9977ZM53.8384 29.6C51.865 29.6 50.105 29.16 48.5583 28.28C47.0383 27.4 45.8383 26.1733 44.9583 24.6C44.105 23.0267 43.6783 21.2267 43.6783 19.2C43.6783 17.5733 43.945 16.1067 44.4783 14.8C45.0383 13.4667 45.8117 12.32 46.7983 11.36C47.8117 10.4 49.0117 9.66667 50.3983 9.16C51.8117 8.65333 53.385 8.4 55.1184 8.4C56.1583 8.4 57.1717 8.52 58.1583 8.76C59.145 8.97333 60.0384 9.30667 60.8384 9.76C61.6384 10.1867 62.265 10.72 62.7184 11.36C63.1717 11.9733 63.3984 12.68 63.3984 13.48C63.3984 14.04 63.2384 14.5067 62.9184 14.88C62.625 15.2267 62.2117 15.4933 61.6784 15.68C61.145 15.8667 60.5584 15.96 59.9184 15.96C58.9584 15.96 58.1184 15.76 57.3983 15.36C56.705 14.96 56.3584 14.36 56.3584 13.56C56.3584 13.0267 56.5317 12.56 56.8784 12.16C57.2517 11.76 57.7717 11.4667 58.4384 11.28C59.4517 10.9333 59.9584 10.6267 59.9584 10.36C59.9584 10.1467 59.785 9.93333 59.4383 9.72C59.0917 9.48 58.5984 9.29333 57.9583 9.16C57.3183 9 56.545 8.92 55.6383 8.92C54.5183 8.92 53.4917 9.17333 52.5584 9.68C51.6517 10.16 50.865 10.84 50.1983 11.72C49.5317 12.5733 49.0117 13.5733 48.6383 14.72C48.2917 15.8667 48.1183 17.1067 48.1183 18.44C48.1183 19.9067 48.305 21.24 48.6783 22.44C49.0517 23.6133 49.5717 24.6267 50.2383 25.48C50.905 26.3067 51.7183 26.9467 52.6783 27.4C53.6384 27.8533 54.705 28.08 55.8784 28.08C56.9717 28.08 58.0117 27.8933 58.9984 27.52C59.985 27.1467 60.8784 26.6 61.6784 25.88C62.4784 25.16 63.1317 24.2667 63.6384 23.2L64.0384 23.6C63.425 24.8 62.7317 25.8 61.9584 26.6C61.2117 27.3733 60.3984 27.9867 59.5183 28.44C58.6384 28.8667 57.7184 29.16 56.7583 29.32C55.7984 29.5067 54.825 29.6 53.8384 29.6ZM78.1018 8.4C79.7551 8.4 81.2218 8.65333 82.5018 9.16C83.8085 9.66667 84.9018 10.4 85.7818 11.36C86.6618 12.2933 87.3285 13.4267 87.7818 14.76C88.2351 16.0667 88.4618 17.5333 88.4618 19.16C88.4618 20.68 88.2351 22.08 87.7818 23.36C87.3285 24.6133 86.6618 25.72 85.7818 26.68C84.9018 27.6133 83.8218 28.3333 82.5418 28.84C81.2618 29.3467 79.7818 29.6 78.1018 29.6C76.3951 29.6 74.8885 29.3467 73.5818 28.84C72.3018 28.3333 71.2218 27.6133 70.3418 26.68C69.4618 25.72 68.7951 24.6133 68.3418 23.36C67.9151 22.08 67.7018 20.68 67.7018 19.16C67.7018 17.5333 67.9418 16.0667 68.4218 14.76C68.9018 13.4267 69.5818 12.2933 70.4618 11.36C71.3685 10.4 72.4618 9.66667 73.7418 9.16C75.0218 8.65333 76.4751 8.4 78.1018 8.4ZM78.1018 8.92C76.7951 8.92 75.7018 9.36 74.8218 10.24C73.9685 11.12 73.3151 12.3333 72.8618 13.88C72.4351 15.4267 72.2218 17.1867 72.2218 19.16C72.2218 20.5733 72.3285 21.88 72.5418 23.08C72.7818 24.28 73.1418 25.3333 73.6218 26.24C74.1285 27.1467 74.7551 27.8533 75.5018 28.36C76.2485 28.84 77.1151 29.08 78.1018 29.08C79.0618 29.08 79.9018 28.84 80.6218 28.36C81.3685 27.8533 81.9951 27.16 82.5018 26.28C83.0085 25.3733 83.3818 24.32 83.6218 23.12C83.8618 21.8933 83.9818 20.5733 83.9818 19.16C83.9818 17.6667 83.8618 16.3067 83.6218 15.08C83.3818 13.8267 83.0218 12.7467 82.5418 11.84C82.0618 10.9067 81.4485 10.1867 80.7018 9.68C79.9551 9.17333 79.0885 8.92 78.1018 8.92ZM105.907 29V28.6L108.707 28.08V4.32C108.707 3.70666 108.453 3.10666 107.947 2.52C107.44 1.90666 106.76 1.42666 105.907 1.08V0.68H112.147L130.147 23.56H130.667V10.8C130.667 9.86667 130.587 8.97333 130.427 8.12C130.267 7.26667 130 6.48 129.627 5.76C129.28 5.01333 128.84 4.33333 128.307 3.72C127.773 3.10667 127.133 2.58667 126.387 2.16C125.667 1.70667 124.84 1.34667 123.907 1.08V0.68H134.307V1.08L131.267 1.6V29H128.787L109.827 5H109.307V17.08C109.307 18.2 109.387 19.2533 109.547 20.24C109.733 21.2 110.013 22.1067 110.387 22.96C110.76 23.7867 111.24 24.56 111.827 25.28C112.413 25.9733 113.12 26.6 113.947 27.16C114.773 27.72 115.747 28.2 116.867 28.6V29H105.907ZM148.03 8.4C150.164 8.4 151.924 8.82667 153.31 9.68C154.724 10.5333 155.777 11.6933 156.47 13.16C157.19 14.6 157.55 16.2533 157.55 18.12H141.75V17.72L153.47 17.28C153.47 15.52 153.27 14.0267 152.87 12.8C152.47 11.5467 151.87 10.5867 151.07 9.92C150.27 9.25333 149.257 8.92 148.03 8.92C146.777 8.92 145.684 9.28 144.75 10C143.817 10.72 143.097 11.8 142.59 13.24C142.084 14.68 141.83 16.4667 141.83 18.6C141.83 19.8533 142.004 21.0533 142.35 22.2C142.697 23.32 143.19 24.3333 143.83 25.24C144.47 26.12 145.257 26.8133 146.19 27.32C147.124 27.8267 148.19 28.08 149.39 28.08C150.19 28.08 150.977 27.9733 151.75 27.76C152.524 27.5467 153.244 27.24 153.91 26.84C154.577 26.4133 155.177 25.9067 155.71 25.32C156.27 24.7067 156.75 24 157.15 23.2L157.55 23.6C156.964 24.7733 156.297 25.7467 155.55 26.52C154.804 27.2933 153.99 27.9067 153.11 28.36C152.23 28.8133 151.324 29.1333 150.39 29.32C149.457 29.5067 148.51 29.6 147.55 29.6C145.95 29.6 144.524 29.32 143.27 28.76C142.017 28.2 140.95 27.4533 140.07 26.52C139.19 25.56 138.51 24.4533 138.03 23.2C137.577 21.9467 137.35 20.6133 137.35 19.2C137.35 17.5733 137.617 16.1067 138.15 14.8C138.684 13.4667 139.417 12.32 140.35 11.36C141.31 10.4 142.444 9.66667 143.75 9.16C145.057 8.65333 146.484 8.4 148.03 8.4ZM166.622 29.6C165.209 29.6 164.182 29.1867 163.542 28.36C162.929 27.5067 162.622 26.2133 162.622 24.48V9.8H159.782V9.4L162.662 9L166.462 2.44H167.022V8.72L171.302 9.4V9.8H167.022V25.88C167.022 26.8133 167.155 27.48 167.422 27.88C167.689 28.28 168.049 28.48 168.502 28.48C168.982 28.48 169.435 28.32 169.862 28C170.315 27.6533 170.769 27.2267 171.222 26.72L171.382 27.2C171.115 27.4933 170.795 27.7867 170.422 28.08C170.075 28.3467 169.689 28.6 169.262 28.84C168.862 29.08 168.435 29.2667 167.982 29.4C167.555 29.5333 167.102 29.6 166.622 29.6ZM183.922 8.4C185.575 8.4 187.042 8.65333 188.322 9.16C189.629 9.66667 190.722 10.4 191.602 11.36C192.482 12.2933 193.149 13.4267 193.602 14.76C194.055 16.0667 194.282 17.5333 194.282 19.16C194.282 20.68 194.055 22.08 193.602 23.36C193.149 24.6133 192.482 25.72 191.602 26.68C190.722 27.6133 189.642 28.3333 188.362 28.84C187.082 29.3467 185.602 29.6 183.922 29.6C182.215 29.6 180.709 29.3467 179.402 28.84C178.122 28.3333 177.042 27.6133 176.162 26.68C175.282 25.72 174.615 24.6133 174.162 23.36C173.735 22.08 173.522 20.68 173.522 19.16C173.522 17.5333 173.762 16.0667 174.242 14.76C174.722 13.4267 175.402 12.2933 176.282 11.36C177.189 10.4 178.282 9.66667 179.562 9.16C180.842 8.65333 182.295 8.4 183.922 8.4ZM183.922 8.92C182.615 8.92 181.522 9.36 180.642 10.24C179.789 11.12 179.135 12.3333 178.682 13.88C178.255 15.4267 178.042 17.1867 178.042 19.16C178.042 20.5733 178.149 21.88 178.362 23.08C178.602 24.28 178.962 25.3333 179.442 26.24C179.949 27.1467 180.575 27.8533 181.322 28.36C182.069 28.84 182.935 29.08 183.922 29.08C184.882 29.08 185.722 28.84 186.442 28.36C187.189 27.8533 187.815 27.16 188.322 26.28C188.829 25.3733 189.202 24.32 189.442 23.12C189.682 21.8933 189.802 20.5733 189.802 19.16C189.802 17.6667 189.682 16.3067 189.442 15.08C189.202 13.8267 188.842 12.7467 188.362 11.84C187.882 10.9067 187.269 10.1867 186.522 9.68C185.775 9.17333 184.909 8.92 183.922 8.92Z" fill="white"/>
</svg>
