<svg width="180" height="30" viewBox="0 0 180 30" fill="none" xmlns="http://www.w3.org/2000/svg">
<path d="M0.594287 29V28.6L3.39429 28.08V4.32C3.39429 3.70666 3.14095 3.10666 2.63429 2.52C2.12762 1.90666 1.44762 1.42666 0.594287 1.08V0.68H6.83429L24.8343 23.56H25.3543V10.8C25.3543 9.86667 25.2743 8.97333 25.1143 8.12C24.9543 7.26667 24.6876 6.48 24.3143 5.76C23.9676 5.01333 23.5276 4.33333 22.9943 3.72C22.461 3.10667 21.821 2.58667 21.0743 2.16C20.3543 1.70667 19.5276 1.34667 18.5943 1.08V0.68H28.9943V1.08L25.9543 1.6V29H23.4743L4.51429 5H3.99429V17.08C3.99429 18.2 4.07429 19.2533 4.23429 20.24C4.42095 21.2 4.70095 22.1067 5.07429 22.96C5.44762 23.7867 5.92762 24.56 6.51429 25.28C7.10095 25.9733 7.80762 26.6 8.63429 27.16C9.46095 27.72 10.4343 28.2 11.5543 28.6V29H0.594287ZM36.1977 5.16C35.5044 5.16 34.8911 5.05333 34.3577 4.84C33.8244 4.62666 33.4111 4.33333 33.1177 3.96C32.8244 3.58666 32.6777 3.16 32.6777 2.68C32.6777 2.17333 32.8244 1.74666 33.1177 1.4C33.4111 1.02666 33.8244 0.733332 34.3577 0.52C34.8911 0.306666 35.5044 0.199999 36.1977 0.199999C36.8911 0.199999 37.5044 0.306666 38.0377 0.52C38.5711 0.733332 38.9844 1.02666 39.2777 1.4C39.5977 1.74666 39.7577 2.17333 39.7577 2.68C39.7577 3.16 39.5977 3.58666 39.2777 3.96C38.9844 4.33333 38.5711 4.62666 38.0377 4.84C37.5044 5.05333 36.8911 5.16 36.1977 5.16ZM31.9977 29V28.6L34.2377 28.2V10.2H31.7577V9.76L38.6377 8.4V28.2L40.8377 28.6V29H31.9977ZM53.8384 29.6C51.865 29.6 50.105 29.16 48.5583 28.28C47.0383 27.4 45.8383 26.1733 44.9583 24.6C44.105 23.0267 43.6783 21.2267 43.6783 19.2C43.6783 17.5733 43.945 16.1067 44.4783 14.8C45.0383 13.4667 45.8117 12.32 46.7983 11.36C47.8117 10.4 49.0117 9.66667 50.3983 9.16C51.8117 8.65333 53.385 8.4 55.1184 8.4C56.1583 8.4 57.1717 8.52 58.1583 8.76C59.145 8.97333 60.0384 9.30667 60.8384 9.76C61.6384 10.1867 62.265 10.72 62.7184 11.36C63.1717 11.9733 63.3984 12.68 63.3984 13.48C63.3984 14.04 63.2384 14.5067 62.9184 14.88C62.625 15.2267 62.2117 15.4933 61.6784 15.68C61.145 15.8667 60.5584 15.96 59.9184 15.96C58.9584 15.96 58.1184 15.76 57.3983 15.36C56.705 14.96 56.3584 14.36 56.3584 13.56C56.3584 13.0267 56.5317 12.56 56.8784 12.16C57.2517 11.76 57.7717 11.4667 58.4384 11.28C59.4517 10.9333 59.9584 10.6267 59.9584 10.36C59.9584 10.1467 59.785 9.93333 59.4383 9.72C59.0917 9.48 58.5984 9.29333 57.9583 9.16C57.3183 9 56.545 8.92 55.6383 8.92C54.5183 8.92 53.4917 9.17333 52.5584 9.68C51.6517 10.16 50.865 10.84 50.1983 11.72C49.5317 12.5733 49.0117 13.5733 48.6383 14.72C48.2917 15.8667 48.1183 17.1067 48.1183 18.44C48.1183 19.9067 48.305 21.24 48.6783 22.44C49.0517 23.6133 49.5717 24.6267 50.2383 25.48C50.905 26.3067 51.7183 26.9467 52.6783 27.4C53.6384 27.8533 54.705 28.08 55.8784 28.08C56.9717 28.08 58.0117 27.8933 58.9984 27.52C59.985 27.1467 60.8784 26.6 61.6784 25.88C62.4784 25.16 63.1317 24.2667 63.6384 23.2L64.0384 23.6C63.425 24.8 62.7317 25.8 61.9584 26.6C61.2117 27.3733 60.3984 27.9867 59.5183 28.44C58.6384 28.8667 57.7184 29.16 56.7583 29.32C55.7984 29.5067 54.825 29.6 53.8384 29.6ZM78.1018 8.4C79.7551 8.4 81.2218 8.65333 82.5018 9.16C83.8085 9.66667 84.9018 10.4 85.7818 11.36C86.6618 12.2933 87.3285 13.4267 87.7818 14.76C88.2351 16.0667 88.4618 17.5333 88.4618 19.16C88.4618 20.68 88.2351 22.08 87.7818 23.36C87.3285 24.6133 86.6618 25.72 85.7818 26.68C84.9018 27.6133 83.8218 28.3333 82.5418 28.84C81.2618 29.3467 79.7818 29.6 78.1018 29.6C76.3951 29.6 74.8885 29.3467 73.5818 28.84C72.3018 28.3333 71.2218 27.6133 70.3418 26.68C69.4618 25.72 68.7951 24.6133 68.3418 23.36C67.9151 22.08 67.7018 20.68 67.7018 19.16C67.7018 17.5333 67.9418 16.0667 68.4218 14.76C68.9018 13.4267 69.5818 12.2933 70.4618 11.36C71.3685 10.4 72.4618 9.66667 73.7418 9.16C75.0218 8.65333 76.4751 8.4 78.1018 8.4ZM78.1018 8.92C76.7951 8.92 75.7018 9.36 74.8218 10.24C73.9685 11.12 73.3151 12.3333 72.8618 13.88C72.4351 15.4267 72.2218 17.1867 72.2218 19.16C72.2218 20.5733 72.3285 21.88 72.5418 23.08C72.7818 24.28 73.1418 25.3333 73.6218 26.24C74.1285 27.1467 74.7551 27.8533 75.5018 28.36C76.2485 28.84 77.1151 29.08 78.1018 29.08C79.0618 29.08 79.9018 28.84 80.6218 28.36C81.3685 27.8533 81.9951 27.16 82.5018 26.28C83.0085 25.3733 83.3818 24.32 83.6218 23.12C83.8618 21.8933 83.9818 20.5733 83.9818 19.16C83.9818 17.6667 83.8618 16.3067 83.6218 15.08C83.3818 13.8267 83.0218 12.7467 82.5418 11.84C82.0618 10.9067 81.4485 10.1867 80.7018 9.68C79.9551 9.17333 79.0885 8.92 78.1018 8.92ZM91.4927 29V28.6L94.2927 28.08V4.32C94.2927 3.70666 94.0394 3.10666 93.5327 2.52C93.0261 1.90666 92.3461 1.42666 91.4927 1.08V0.68H97.7327L115.733 23.56H116.253V10.8C116.253 9.86667 116.173 8.97333 116.013 8.12C115.853 7.26667 115.586 6.48 115.213 5.76C114.866 5.01333 114.426 4.33333 113.893 3.72C113.359 3.10667 112.719 2.58667 111.973 2.16C111.253 1.70667 110.426 1.34667 109.493 1.08V0.68H119.893V1.08L116.853 1.6V29H114.373L95.4127 5H94.8927V17.08C94.8927 18.2 94.9727 19.2533 95.1327 20.24C95.3194 21.2 95.5994 22.1067 95.9727 22.96C96.3461 23.7867 96.8261 24.56 97.4127 25.28C97.9994 25.9733 98.7061 26.6 99.5327 27.16C100.359 27.72 101.333 28.2 102.453 28.6V29H91.4927ZM133.616 8.4C135.749 8.4 137.509 8.82667 138.896 9.68C140.309 10.5333 141.363 11.6933 142.056 13.16C142.776 14.6 143.136 16.2533 143.136 18.12H127.336V17.72L139.056 17.28C139.056 15.52 138.856 14.0267 138.456 12.8C138.056 11.5467 137.456 10.5867 136.656 9.92C135.856 9.25333 134.843 8.92 133.616 8.92C132.363 8.92 131.269 9.28 130.336 10C129.403 10.72 128.683 11.8 128.176 13.24C127.669 14.68 127.416 16.4667 127.416 18.6C127.416 19.8533 127.589 21.0533 127.936 22.2C128.283 23.32 128.776 24.3333 129.416 25.24C130.056 26.12 130.843 26.8133 131.776 27.32C132.709 27.8267 133.776 28.08 134.976 28.08C135.776 28.08 136.563 27.9733 137.336 27.76C138.109 27.5467 138.829 27.24 139.496 26.84C140.163 26.4133 140.763 25.9067 141.296 25.32C141.856 24.7067 142.336 24 142.736 23.2L143.136 23.6C142.549 24.7733 141.883 25.7467 141.136 26.52C140.389 27.2933 139.576 27.9067 138.696 28.36C137.816 28.8133 136.909 29.1333 135.976 29.32C135.043 29.5067 134.096 29.6 133.136 29.6C131.536 29.6 130.109 29.32 128.856 28.76C127.603 28.2 126.536 27.4533 125.656 26.52C124.776 25.56 124.096 24.4533 123.616 23.2C123.163 21.9467 122.936 20.6133 122.936 19.2C122.936 17.5733 123.203 16.1067 123.736 14.8C124.269 13.4667 125.003 12.32 125.936 11.36C126.896 10.4 128.029 9.66667 129.336 9.16C130.643 8.65333 132.069 8.4 133.616 8.4ZM152.208 29.6C150.795 29.6 149.768 29.1867 149.128 28.36C148.515 27.5067 148.208 26.2133 148.208 24.48V9.8H145.368V9.4L148.248 9L152.048 2.44H152.608V8.72L156.888 9.4V9.8H152.608V25.88C152.608 26.8133 152.741 27.48 153.008 27.88C153.275 28.28 153.635 28.48 154.088 28.48C154.568 28.48 155.021 28.32 155.448 28C155.901 27.6533 156.355 27.2267 156.808 26.72L156.968 27.2C156.701 27.4933 156.381 27.7867 156.008 28.08C155.661 28.3467 155.275 28.6 154.848 28.84C154.448 29.08 154.021 29.2667 153.568 29.4C153.141 29.5333 152.688 29.6 152.208 29.6ZM169.508 8.4C171.161 8.4 172.628 8.65333 173.908 9.16C175.215 9.66667 176.308 10.4 177.188 11.36C178.068 12.2933 178.735 13.4267 179.188 14.76C179.641 16.0667 179.868 17.5333 179.868 19.16C179.868 20.68 179.641 22.08 179.188 23.36C178.735 24.6133 178.068 25.72 177.188 26.68C176.308 27.6133 175.228 28.3333 173.948 28.84C172.668 29.3467 171.188 29.6 169.508 29.6C167.801 29.6 166.295 29.3467 164.988 28.84C163.708 28.3333 162.628 27.6133 161.748 26.68C160.868 25.72 160.201 24.6133 159.748 23.36C159.321 22.08 159.108 20.68 159.108 19.16C159.108 17.5333 159.348 16.0667 159.828 14.76C160.308 13.4267 160.988 12.2933 161.868 11.36C162.775 10.4 163.868 9.66667 165.148 9.16C166.428 8.65333 167.881 8.4 169.508 8.4ZM169.508 8.92C168.201 8.92 167.108 9.36 166.228 10.24C165.375 11.12 164.721 12.3333 164.268 13.88C163.841 15.4267 163.628 17.1867 163.628 19.16C163.628 20.5733 163.735 21.88 163.948 23.08C164.188 24.28 164.548 25.3333 165.028 26.24C165.535 27.1467 166.161 27.8533 166.908 28.36C167.655 28.84 168.521 29.08 169.508 29.08C170.468 29.08 171.308 28.84 172.028 28.36C172.775 27.8533 173.401 27.16 173.908 26.28C174.415 25.3733 174.788 24.32 175.028 23.12C175.268 21.8933 175.388 20.5733 175.388 19.16C175.388 17.6667 175.268 16.3067 175.028 15.08C174.788 13.8267 174.428 12.7467 173.948 11.84C173.468 10.9067 172.855 10.1867 172.108 9.68C171.361 9.17333 170.495 8.92 169.508 8.92Z" fill="white"/>
</svg>
