<svg width="329" height="50" viewBox="0 0 329 50" fill="none" xmlns="http://www.w3.org/2000/svg">
<path d="M31.8535 2.68001C31.9449 2.68001 32.0375 2.69936 32.1318 2.71029C32.1318 2.76381 32.1417 2.79785 32.1299 2.81575C31.7823 3.353 31.6522 3.96279 31.543 4.5765C31.3751 5.5131 31.3106 6.45898 31.3105 7.41048L31.3096 16.3128C31.3106 16.3341 31.3145 16.3558 31.3145 16.3783C31.3085 20.3812 31.3105 39.268 31.3105 43.2708C31.3106 44.2144 31.4023 45.1471 31.6406 46.0618C31.7429 46.4521 31.8643 46.8355 32.0986 47.1722C32.1245 47.209 32.1314 47.2569 32.1602 47.3333C32.0382 47.3492 31.9371 47.3714 31.8369 47.3714C29.5724 47.3734 27.3075 47.3734 25.043 47.3714C24.9417 47.3714 24.8402 47.3493 24.6914 47.3314C24.751 47.1734 24.7884 47.0646 24.8301 46.9593C25.12 46.2323 25.2942 45.4763 25.3379 44.6956C25.3746 44.0264 25.4136 43.3531 25.3828 42.6849C25.3451 41.8823 25.2408 41.0811 25.1484 40.2826C25.1325 40.1486 25.0423 40.0159 24.9648 39.8978C24.1941 38.7138 23.3364 37.5938 22.4355 36.5072C21.0814 34.8716 19.6321 33.3246 18.0879 31.8665C17.341 31.1624 16.5577 30.4972 15.7959 29.8089C14.4779 28.618 13.2372 27.3482 12.0205 26.054C10.7523 24.7043 9.52508 23.3166 8.375 21.8636C7.62411 20.9151 6.89986 19.9466 6.29199 18.8978C6.11022 18.5849 5.95165 18.2597 5.74902 17.8773V18.2161C5.74902 23.8222 5.74498 29.4295 5.75293 35.0355C5.75393 36.1688 5.85534 37.2963 6.15332 38.3949C6.24766 38.7444 6.40608 39.0748 6.53418 39.4144C6.55272 39.4667 6.57068 39.519 6.58789 39.5706C6.36348 39.6352 0.359929 39.6497 0.0117188 39.5882C0.020556 39.5368 0.0183793 39.4785 0.0410156 39.4329C0.371774 38.7833 0.514547 38.0787 0.636719 37.3685C0.819461 36.3068 0.860331 35.2332 0.861328 34.1585C0.865301 27.5157 0.870333 20.8727 0.857422 14.2308C0.854442 13.0112 0.723042 11.7983 0.347656 10.6273C0.254318 10.3373 0.123132 10.0601 0 9.75325C0.0564832 9.73443 0.1134 9.70562 0.173828 9.69759C0.249208 9.68767 0.326945 9.69269 0.40332 9.69271C2.8023 9.69204 5.20161 9.69236 7.60059 9.69368C7.72965 9.69368 7.85899 9.71109 8.00293 9.72103C7.99699 9.81116 8.00304 9.86968 7.98828 9.92122C7.83234 10.4616 7.80672 11.0173 7.80176 11.5745C7.79382 12.6413 7.85246 13.7005 8.08984 14.7474C8.40376 16.1338 9.04133 17.3515 9.95801 18.43C10.8122 19.4372 11.7935 20.3124 12.8057 21.1517C14.2974 22.3892 15.7941 23.6197 17.3066 24.8324C18.8193 26.0471 20.4218 27.1381 22.0566 28.182C23.1482 28.8792 24.2443 29.5687 25.3359 30.2669C25.6259 30.4516 25.9059 30.6511 26.2217 30.8656C26.2376 30.7713 26.2578 30.7016 26.2588 30.6331C26.2814 29.5957 26.3065 15.0277 26.3291 11.9154C26.3291 10.4721 26.3302 9.02874 26.332 7.58529C26.333 6.3527 26.2319 5.13264 25.9131 3.93978C25.8217 3.59919 25.6797 3.27146 25.5605 2.9388L25.4863 2.722C25.6085 2.70512 25.7093 2.68001 25.8096 2.68001C27.8239 2.67803 29.8385 2.67803 31.8535 2.68001Z" fill="white"/>
<path d="M234.235 2.68001C234.144 2.68001 234.051 2.69936 233.957 2.71029C233.957 2.76381 233.947 2.79785 233.959 2.81575C234.307 3.353 234.437 3.96279 234.546 4.5765C234.714 5.5131 234.778 6.45898 234.778 7.41048L234.779 16.3128C234.778 16.3341 234.774 16.3558 234.774 16.3783C234.78 20.3812 234.778 39.268 234.778 43.2708C234.778 44.2144 234.687 45.1471 234.448 46.0618C234.346 46.4521 234.225 46.8355 233.99 47.1722C233.964 47.209 233.958 47.2569 233.929 47.3333C234.051 47.3492 234.152 47.3714 234.252 47.3714C236.517 47.3734 238.781 47.3734 241.046 47.3714C241.147 47.3714 241.249 47.3493 241.397 47.3314C241.338 47.1734 241.301 47.0646 241.259 46.9593C240.969 46.2323 240.795 45.4763 240.751 44.6956C240.714 44.0264 240.675 43.3531 240.706 42.6849C240.744 41.8823 240.848 41.0811 240.94 40.2826C240.956 40.1486 241.047 40.0159 241.124 39.8978C241.895 38.7138 242.752 37.5938 243.653 36.5072C245.007 34.8716 246.457 33.3246 248.001 31.8665C248.748 31.1624 249.531 30.4972 250.293 29.8089C251.611 28.618 252.852 27.3482 254.068 26.054C255.337 24.7043 256.564 23.3166 257.714 21.8636C258.465 20.9151 259.189 19.9466 259.797 18.8978C259.979 18.5849 260.137 18.2597 260.34 17.8773V18.2161C260.34 23.8222 260.344 29.4295 260.336 35.0355C260.335 36.1688 260.234 37.2963 259.936 38.3949C259.841 38.7444 259.683 39.0748 259.555 39.4144C259.536 39.4667 259.518 39.519 259.501 39.5706C259.725 39.6352 265.729 39.6497 266.077 39.5882C266.068 39.5368 266.07 39.4785 266.048 39.4329C265.717 38.7833 265.574 38.0787 265.452 37.3685C265.269 36.3068 265.229 35.2332 265.228 34.1585C265.224 27.5157 265.219 20.8727 265.231 14.2308C265.234 13.0112 265.366 11.7983 265.741 10.6273C265.835 10.3373 265.966 10.0601 266.089 9.75325C266.032 9.73443 265.975 9.70562 265.915 9.69759C265.84 9.68767 265.762 9.69269 265.686 9.69271C263.287 9.69204 260.887 9.69236 258.488 9.69368C258.359 9.69368 258.23 9.71109 258.086 9.72103C258.092 9.81116 258.086 9.86968 258.101 9.92122C258.257 10.4616 258.282 11.0173 258.287 11.5745C258.295 12.6413 258.236 13.7005 257.999 14.7474C257.685 16.1338 257.048 17.3515 256.131 18.43C255.277 19.4372 254.295 20.3124 253.283 21.1517C251.791 22.3892 250.295 23.6197 248.782 24.8324C247.27 26.0471 245.667 27.1381 244.032 28.182C242.941 28.8792 241.845 29.5687 240.753 30.2669C240.463 30.4516 240.183 30.6511 239.867 30.8656C239.851 30.7713 239.831 30.7016 239.83 30.6331C239.807 29.5957 239.782 15.0277 239.76 11.9154C239.76 10.4721 239.759 9.02874 239.757 7.58529C239.756 6.3527 239.857 5.13264 240.176 3.93978C240.267 3.59919 240.409 3.27146 240.528 2.9388L240.603 2.722C240.48 2.70512 240.38 2.68001 240.279 2.68001C238.265 2.67803 236.25 2.67803 234.235 2.68001Z" fill="white"/>
<path d="M41.3943 37C40.301 37 39.461 36.76 38.8743 36.28C38.3143 35.8 38.021 35.32 37.9943 34.84L37.9543 34.16V17H40.7543V34.16C40.7543 34.9333 40.901 35.5333 41.1943 35.96C41.5143 36.36 41.821 36.5733 42.1143 36.6L42.5943 36.68H43.8343V37H41.3943ZM38.1943 12.52C37.8743 12.2 37.7143 11.8 37.7143 11.32C37.7143 10.84 37.8743 10.44 38.1943 10.12C38.5143 9.77333 38.9143 9.6 39.3943 9.6C39.8743 9.6 40.2743 9.77333 40.5943 10.12C40.941 10.44 41.1143 10.84 41.1143 11.32C41.1143 11.8 40.941 12.2 40.5943 12.52C40.2743 12.84 39.8743 13 39.3943 13C38.9143 13 38.5143 12.84 38.1943 12.52ZM54.4087 17.16C52.5153 17.16 50.9287 18.0667 49.6487 19.88C48.3953 21.6933 47.7687 24.2 47.7687 27.4C47.7687 30.6 48.342 32.9733 49.4887 34.52C50.662 36.0667 52.1953 36.84 54.0887 36.84C56.462 36.84 58.5687 36.44 60.4087 35.64L60.5287 35.92C58.6353 36.7467 56.422 37.16 53.8887 37.16C51.3553 37.16 49.2487 36.36 47.5687 34.76C45.8887 33.16 45.0487 30.6933 45.0487 27.36C45.0487 24.0267 45.9287 21.44 47.6887 19.6C49.4487 17.76 51.6887 16.84 54.4087 16.84C55.9287 16.84 57.3287 17.1867 58.6087 17.88C59.9153 18.5733 60.8753 19.6267 61.4887 21.04H58.9287C58.5287 19.7333 57.9153 18.76 57.0887 18.12C56.2887 17.48 55.3953 17.16 54.4087 17.16ZM73.0052 37.16C70.2052 37.16 67.9252 36.36 66.1652 34.76C64.4052 33.16 63.5252 30.6933 63.5252 27.36C63.5252 24.0267 64.4319 21.44 66.2452 19.6C68.0852 17.76 70.4052 16.84 73.2052 16.84C76.0319 16.84 78.3252 17.64 80.0852 19.24C81.8452 20.84 82.7252 23.3067 82.7252 26.64C82.7252 29.9733 81.8052 32.56 79.9652 34.4C78.1519 36.24 75.8319 37.16 73.0052 37.16ZM73.2852 17.16C71.2586 17.16 69.5786 18.0667 68.2452 19.88C66.9119 21.6667 66.2452 24.1733 66.2452 27.4C66.2452 30.6 66.8586 32.9733 68.0852 34.52C69.3119 36.0667 70.9386 36.84 72.9652 36.84C74.9919 36.84 76.6719 35.9467 78.0052 34.16C79.3386 32.3467 80.0052 29.84 80.0052 26.64C80.0052 23.4133 79.3919 21.0267 78.1652 19.48C76.9386 17.9333 75.3119 17.16 73.2852 17.16ZM85.908 27.72C85.908 24.2533 86.748 21.5733 88.428 19.68C90.108 17.7867 92.628 16.84 95.988 16.84C97.5614 16.84 99.148 17.24 100.748 18.04V7.04H103.548V34.16C103.548 34.9333 103.695 35.5333 103.988 35.96C104.308 36.36 104.628 36.5733 104.948 36.6L105.388 36.68H106.628V37H104.188C103.095 37 102.255 36.76 101.668 36.28C101.108 35.8 100.815 35.32 100.788 34.84L100.748 34.16V33.52C100.241 34.4533 99.4014 35.28 98.228 36C97.0547 36.72 95.668 37.08 94.068 37.08C88.628 36.9467 85.908 33.8267 85.908 27.72ZM94.108 36.76C95.8947 36.76 97.428 36.28 98.708 35.32C99.988 34.36 100.668 33.4133 100.748 32.48V18.4C98.8547 17.5733 97.228 17.16 95.868 17.16C93.4947 17.16 91.708 18.0933 90.508 19.96C89.308 21.8 88.708 24.3867 88.708 27.72C88.708 33.7467 90.508 36.76 94.108 36.76ZM110.542 27.24C110.542 30.5467 111.115 32.9733 112.262 34.52C113.435 36.0667 114.969 36.84 116.862 36.84C119.529 36.84 121.902 36.44 123.982 35.64L124.102 35.92C121.969 36.7467 119.555 37.16 116.862 37.16C114.195 37.16 112.022 36.36 110.342 34.76C108.662 33.16 107.822 30.6933 107.822 27.36C107.822 24.0267 108.702 21.44 110.462 19.6C112.222 17.76 114.462 16.84 117.182 16.84C119.369 16.84 121.209 17.4933 122.702 18.8C124.195 20.1067 124.942 22.04 124.942 24.6C124.942 24.7333 124.942 24.8667 124.942 25H110.662C110.582 25.72 110.542 26.4667 110.542 27.24ZM122.222 24.68C122.195 22.12 121.702 20.2267 120.742 19C119.782 17.7733 118.542 17.16 117.022 17.16C115.502 17.16 114.142 17.8267 112.942 19.16C111.769 20.4933 111.022 22.3333 110.702 24.68H122.222ZM150.692 21.6C150.692 19.9733 150.479 18.8267 150.052 18.16C149.625 17.4933 148.812 17.16 147.612 17.16C146.012 17.16 144.585 17.8267 143.332 19.16C142.105 20.4933 141.492 21.6933 141.492 22.76V37H138.692V21.6C138.692 19.9733 138.479 18.8267 138.052 18.16C137.625 17.4933 136.719 17.16 135.332 17.16C133.945 17.16 132.625 17.8 131.372 19.08C130.145 20.36 129.479 21.5467 129.372 22.64V37H126.572V17H129.372V21.52C129.799 20.3733 130.585 19.3067 131.732 18.32C132.879 17.3333 134.159 16.84 135.572 16.84C136.985 16.84 138.105 16.9733 138.932 17.24C139.785 17.48 140.385 17.8667 140.732 18.4C141.079 18.9333 141.292 19.4 141.372 19.8C141.452 20.2 141.492 20.76 141.492 21.48C141.919 20.3333 142.692 19.28 143.812 18.32C144.932 17.3333 146.132 16.84 147.412 16.84C148.692 16.84 149.719 16.9467 150.492 17.16C151.265 17.3733 151.839 17.6133 152.212 17.88C152.612 18.1467 152.905 18.5333 153.092 19.04C153.305 19.5467 153.425 19.96 153.452 20.28C153.479 20.6 153.492 21.0533 153.492 21.64V34.16C153.492 34.9333 153.639 35.5333 153.932 35.96C154.252 36.36 154.572 36.5733 154.892 36.6L155.332 36.68H156.572V37H154.132C153.039 37 152.199 36.76 151.612 36.28C151.052 35.8 150.759 35.32 150.732 34.84L150.692 34.16V21.6ZM166.833 37.16C164.033 37.16 161.753 36.36 159.993 34.76C158.233 33.16 157.353 30.6933 157.353 27.36C157.353 24.0267 158.26 21.44 160.073 19.6C161.913 17.76 164.233 16.84 167.033 16.84C169.86 16.84 172.153 17.64 173.913 19.24C175.673 20.84 176.553 23.3067 176.553 26.64C176.553 29.9733 175.633 32.56 173.793 34.4C171.98 36.24 169.66 37.16 166.833 37.16ZM167.113 17.16C165.087 17.16 163.407 18.0667 162.073 19.88C160.74 21.6667 160.073 24.1733 160.073 27.4C160.073 30.6 160.687 32.9733 161.913 34.52C163.14 36.0667 164.767 36.84 166.793 36.84C168.82 36.84 170.5 35.9467 171.833 34.16C173.167 32.3467 173.833 29.84 173.833 26.64C173.833 23.4133 173.22 21.0267 171.993 19.48C170.767 17.9333 169.14 17.16 167.113 17.16ZM190.635 18.4C190.208 18.0533 189.515 17.76 188.555 17.52C187.622 17.28 186.915 17.16 186.435 17.16C185.955 17.16 185.675 17.16 185.595 17.16C184.155 17.1867 183.115 17.56 182.475 18.28C181.835 18.9733 181.515 19.76 181.515 20.64C181.515 21.52 181.795 22.2667 182.355 22.88C182.915 23.4667 183.608 23.9333 184.435 24.28C185.288 24.6 186.195 24.9733 187.155 25.4C188.142 25.8267 189.048 26.2667 189.875 26.72C190.728 27.1467 191.435 27.7867 191.995 28.64C192.555 29.4667 192.835 30.5067 192.835 31.76C192.835 33.0133 192.395 34.08 191.515 34.96C190.635 35.84 189.648 36.4267 188.555 36.72C187.488 37.0133 186.328 37.16 185.075 37.16C182.355 37.16 180.315 36.56 178.955 35.36L179.195 35.12C179.728 35.6267 180.515 36.04 181.555 36.36C182.622 36.68 183.648 36.84 184.635 36.84C186.208 36.84 187.502 36.4133 188.515 35.56C189.555 34.68 190.075 33.6 190.075 32.32C190.075 31.0133 189.688 29.9733 188.915 29.2C188.142 28.4 187.195 27.7867 186.075 27.36C184.982 26.9067 183.875 26.4667 182.755 26.04C181.635 25.5867 180.688 24.9733 179.915 24.2C179.142 23.4 178.755 22.48 178.755 21.44C178.755 20.4 178.995 19.56 179.475 18.92C179.955 18.2533 180.595 17.7867 181.395 17.52C182.755 17.0667 184.115 16.84 185.475 16.84C187.768 16.84 189.555 17.2667 190.835 18.12L190.635 18.4Z" fill="white"/>
<path d="M273.963 27.24C273.963 30.5467 274.536 32.9733 275.683 34.52C276.856 36.0667 278.39 36.84 280.283 36.84C282.95 36.84 285.323 36.44 287.403 35.64L287.523 35.92C285.39 36.7467 282.976 37.16 280.283 37.16C277.616 37.16 275.443 36.36 273.763 34.76C272.083 33.16 271.243 30.6933 271.243 27.36C271.243 24.0267 272.123 21.44 273.883 19.6C275.643 17.76 277.883 16.84 280.603 16.84C282.79 16.84 284.63 17.4933 286.123 18.8C287.616 20.1067 288.363 22.04 288.363 24.6C288.363 24.7333 288.363 24.8667 288.363 25H274.083C274.003 25.72 273.963 26.4667 273.963 27.24ZM285.643 24.68C285.616 22.12 285.123 20.2267 284.163 19C283.203 17.7733 281.963 17.16 280.443 17.16C278.923 17.16 277.563 17.8267 276.363 19.16C275.19 20.4933 274.443 22.3333 274.123 24.68H285.643ZM291.004 17.32V17H291.844V13H294.644V17H300.764V17.32H294.644V31.88C294.644 33.6133 294.83 34.8667 295.204 35.64C295.604 36.4133 296.417 36.8 297.644 36.8C298.897 36.8 300.164 36.5467 301.444 36.04L301.564 36.36C300.23 36.8667 298.697 37.12 296.964 37.12C295.257 37.12 293.977 36.7733 293.124 36.08C292.27 35.36 291.844 33.9467 291.844 31.84V17.32H291.004ZM312.051 37.16C309.251 37.16 306.971 36.36 305.211 34.76C303.451 33.16 302.571 30.6933 302.571 27.36C302.571 24.0267 303.478 21.44 305.291 19.6C307.131 17.76 309.451 16.84 312.251 16.84C315.078 16.84 317.371 17.64 319.131 19.24C320.891 20.84 321.771 23.3067 321.771 26.64C321.771 29.9733 320.851 32.56 319.011 34.4C317.198 36.24 314.878 37.16 312.051 37.16ZM312.331 17.16C310.304 17.16 308.624 18.0667 307.291 19.88C305.958 21.6667 305.291 24.1733 305.291 27.4C305.291 30.6 305.904 32.9733 307.131 34.52C308.358 36.0667 309.984 36.84 312.011 36.84C314.038 36.84 315.718 35.9467 317.051 34.16C318.384 32.3467 319.051 29.84 319.051 26.64C319.051 23.4133 318.438 21.0267 317.211 19.48C315.984 17.9333 314.358 17.16 312.331 17.16Z" fill="white"/>
</svg>
